<?xml version="1.0" encoding="UTF-8" standalone="no"?>
<!-- Created with Inkscape (http://www.inkscape.org/) -->

<svg
   version="1.1"
   id="svg148"
   width="1133.8533"
   height="1133.8533"
   viewBox="0 0 1133.8533 1133.8533"
   sodipodi:docname="insightic_画板 1.eps"
   xmlns:inkscape="http://www.inkscape.org/namespaces/inkscape"
   xmlns:sodipodi="http://sodipodi.sourceforge.net/DTD/sodipodi-0.dtd"
   xmlns="http://www.w3.org/2000/svg"
   xmlns:svg="http://www.w3.org/2000/svg">
  <defs
     id="defs152" />
  <sodipodi:namedview
     id="namedview150"
     pagecolor="#ffffff"
     bordercolor="#000000"
     borderopacity="0.25"
     inkscape:showpageshadow="2"
     inkscape:pageopacity="0.0"
     inkscape:pagecheckerboard="0"
     inkscape:deskcolor="#d1d1d1"
     showgrid="false" />
  <g
     id="g156"
     inkscape:groupmode="layer"
     inkscape:label="Page 1"
     transform="matrix(1.3333333,0,0,-1.3333333,0,1133.8533)">
    <g
       id="g158"
       transform="scale(0.1)"
       inkscape:export-filename="g158.svg"
       inkscape:export-xdpi="96"
       inkscape:export-ydpi="96">
      <path
         d="m 1698.07,2603.02 c 0,-36.29 5.54,-59.13 16.61,-68.55 11.06,-9.43 33.09,-14.14 66.07,-14.14 h 8.48 v -33.21 h -335.68 v 33.21 h 7.78 c 32.97,0 54.88,4.71 65.72,14.14 10.83,9.42 16.25,32.26 16.25,68.55 v 318.02 c 0,42.86 -5.77,71.01 -17.31,84.44 -11.55,13.43 -35.69,22.5 -72.44,27.21 v 31.8 c 38.16,7.06 77.39,17.19 117.67,30.39 40.28,13.19 82.56,29.68 126.85,49.47 z m -164.66,842.38 c 0,26.86 8.95,49.23 26.86,67.14 17.89,17.9 40.28,26.85 67.13,26.85 26.38,0 48.64,-9.08 66.78,-27.21 18.14,-18.14 27.21,-40.4 27.21,-66.78 0,-26.38 -9.07,-48.65 -27.21,-66.79 -18.14,-18.13 -40.4,-27.2 -66.78,-27.2 -26.85,0 -49.24,8.94 -67.13,26.85 -17.91,17.9 -26.86,40.29 -26.86,67.14"
         style="fill:#231f20;fill-opacity:1;fill-rule:nonzero;stroke:none"
         id="path160" />
      <path
         d="m 2100.18,2603.02 c 0,-36.29 5.53,-59.13 16.61,-68.55 11.06,-9.43 33.09,-14.14 66.07,-14.14 h 8.48 v -33.21 h -337.09 v 33.21 h 9.19 c 32.97,0 54.88,5.06 65.72,15.2 10.83,10.13 16.26,32.61 16.26,67.49 v 318.02 c 0,42.86 -5.9,71.01 -17.67,84.44 -11.79,13.43 -36.29,22.5 -73.5,27.21 v 31.8 c 38.63,7.06 78.2,17.07 118.72,30.03 40.52,12.96 82.92,29.56 127.21,49.83 v -113.07 c 47.58,39.09 91.98,67.72 133.21,85.86 41.22,18.13 82.8,27.21 124.74,27.21 71.13,0 125.08,-20.49 161.83,-61.49 36.75,-40.98 55.12,-101.05 55.12,-180.2 v -299.64 c 0,-36.29 5.41,-59.13 16.26,-68.55 10.83,-9.43 32.97,-14.14 66.43,-14.14 h 8.48 v -33.21 H 2323.5 v 33.21 h 8.48 c 33.45,0 55.58,4.71 66.42,14.14 10.84,9.42 16.26,32.26 16.26,68.55 v 319.42 c 0,46.17 -12.48,82.09 -37.45,107.77 -24.98,25.68 -59.37,38.52 -103.18,38.52 -31.57,0 -62.08,-8.48 -91.52,-25.44 -29.45,-16.96 -56.89,-42.16 -82.33,-75.61 v -364.66"
         style="fill:#231f20;fill-opacity:1;fill-rule:nonzero;stroke:none"
         id="path162" />
      <path
         d="m 2783.55,2516.09 -14.12,226.85 30.38,2.12 c 24.49,-81.04 55.58,-141.58 93.29,-181.62 37.68,-40.05 82.2,-60.07 133.56,-60.07 32.51,0 58.06,8.36 76.68,25.09 18.61,16.72 27.91,39.68 27.91,68.9 0,47.58 -45.22,93.75 -135.68,138.52 l -14.85,7.06 c -95.16,48.52 -154.76,86.81 -178.79,114.85 -24.02,28.02 -36.04,61.83 -36.04,101.4 0,53.23 22.37,97.4 67.14,132.51 44.76,35.09 101.99,52.65 171.73,52.65 44.28,0 84.56,-3.65 120.84,-10.96 36.28,-7.3 69.96,-18.72 101.05,-34.27 l 14.14,-192.23 -27.56,-4.23 c -25.91,69.25 -56.66,121.3 -92.22,156.18 -35.58,34.86 -75.74,52.29 -120.5,52.29 -28.74,0 -52.53,-8.36 -71.37,-25.08 -18.85,-16.73 -28.27,-37.35 -28.27,-61.84 0,-40.99 54.65,-85.75 163.95,-134.28 19.31,-8 34.16,-14.37 44.53,-19.07 59.35,-26.86 101.64,-55.72 126.84,-86.57 25.21,-30.87 37.81,-68.2 37.81,-112.01 0,-62.67 -23.67,-112.85 -71.02,-150.53 -47.34,-37.69 -110.84,-56.54 -190.45,-56.54 -34.87,0 -71.15,4.24 -108.84,12.72 -37.69,8.49 -77.73,21.2 -120.14,38.16"
         style="fill:#231f20;fill-opacity:1;fill-rule:nonzero;stroke:none"
         id="path164" />
      <path
         d="m 3613.92,2603.02 c 0,-36.29 5.53,-59.13 16.61,-68.55 11.06,-9.43 33.1,-14.14 66.07,-14.14 h 8.49 v -33.21 h -335.68 v 33.21 h 7.77 c 32.97,0 54.88,4.71 65.72,14.14 10.83,9.42 16.25,32.26 16.25,68.55 v 318.02 c 0,42.86 -5.77,71.01 -17.31,84.44 -11.55,13.43 -35.69,22.5 -72.43,27.21 v 31.8 c 38.16,7.06 77.38,17.19 117.66,30.39 40.29,13.19 82.56,29.68 126.85,49.47 z m -164.66,842.38 c 0,26.86 8.94,49.23 26.85,67.14 17.91,17.9 40.29,26.85 67.14,26.85 26.38,0 48.64,-9.08 66.78,-27.21 18.13,-18.14 27.21,-40.4 27.21,-66.78 0,-26.38 -9.08,-48.65 -27.21,-66.79 -18.14,-18.13 -40.4,-27.2 -66.78,-27.2 -26.85,0 -49.23,8.94 -67.14,26.85 -17.91,17.9 -26.85,40.29 -26.85,67.14"
         style="fill:#231f20;fill-opacity:1;fill-rule:nonzero;stroke:none"
         id="path166" />
      <path
         d="m 3964.45,2721.74 v 14.14 c -48.53,20.72 -84.57,46.4 -108.12,77.03 -23.56,30.62 -35.34,67.13 -35.34,109.53 0,65.48 23.68,118.84 71.02,160.07 47.36,41.22 108.48,61.84 183.39,61.84 11.77,0 24.49,-0.71 38.17,-2.12 13.66,-1.42 28.49,-3.54 44.52,-6.36 13.66,58.41 34.15,103.17 61.48,134.27 27.32,31.09 59.82,46.64 97.52,46.64 24.97,0 44.52,-6.12 58.66,-18.37 14.13,-12.26 21.2,-28.98 21.2,-50.18 0,-18.37 -6.25,-33.8 -18.73,-46.28 -12.49,-12.5 -27.92,-18.74 -46.29,-18.74 -10.84,0 -25.33,1.65 -43.46,4.95 -18.14,3.3 -30.74,4.95 -37.81,4.95 -16.49,0 -28.86,-4.71 -37.09,-14.13 -8.26,-9.44 -14.26,-25.92 -18.03,-49.48 51.35,-18.84 90.57,-44.87 117.66,-78.08 27.09,-33.22 40.64,-72.21 40.64,-116.96 0,-54.19 -16.14,-98.71 -48.41,-133.57 -32.27,-34.86 -82.8,-62.19 -151.58,-81.97 -9.89,-3.3 -32.51,-7.42 -67.84,-12.37 -35.35,-4.95 -65.27,-10.5 -89.76,-16.61 -23.56,-5.65 -41.34,-12.72 -53.35,-21.2 -12.02,-8.47 -18.02,-18.38 -18.02,-29.68 0,-26.85 40.98,-42.17 122.96,-45.93 46.16,-1.89 83.85,-4.49 113.07,-7.78 89.51,-8.95 154.88,-27.8 196.11,-56.53 41.22,-28.75 61.84,-69.73 61.84,-122.97 0,-63.12 -32.04,-113.89 -96.11,-152.3 -64.08,-38.38 -149.36,-57.59 -255.82,-57.59 -95.66,0 -170.68,12.72 -225.09,38.16 -54.42,25.44 -81.63,60.07 -81.63,103.89 0,22.15 9.65,42.75 28.98,61.83 19.32,19.09 48.76,37.11 88.34,54.07 v 11.3 c -37.71,8.48 -66.68,21.56 -86.92,39.22 -20.27,17.67 -30.4,38.52 -30.4,62.54 0,29.21 15.55,55.83 46.65,79.87 31.09,24.02 83.62,48.99 157.59,74.9 z m -5.65,-266.42 c -30.16,-18.37 -52.42,-36.63 -66.79,-54.77 -14.37,-18.13 -21.55,-37.1 -21.55,-56.89 0,-32.98 18.25,-59.95 54.77,-80.91 36.51,-20.96 84.2,-31.45 143.1,-31.45 65.96,0 117.2,10.14 153.71,30.38 36.51,20.27 54.77,48.53 54.77,84.8 0,40.06 -21.2,68.21 -63.61,84.46 -42.4,16.25 -120.13,24.38 -233.2,24.38 z m 125.79,655.81 c -33.46,0 -59.01,-14.84 -76.68,-44.52 -17.66,-29.68 -26.5,-72.32 -26.5,-127.91 0,-64.08 8.48,-111.66 25.45,-142.75 16.95,-31.09 42.86,-46.64 77.73,-46.64 33.45,0 58.65,14.95 75.62,44.87 16.96,29.91 25.43,75.27 25.43,136.03 0,59.84 -8.47,104.96 -25.43,135.34 -16.97,30.39 -42.17,45.58 -75.62,45.58"
         style="fill:#231f20;fill-opacity:1;fill-rule:nonzero;stroke:none"
         id="path168" />
      <path
         d="m 4732.62,2603.02 c 0,-36.29 5.54,-59.13 16.61,-68.55 11.06,-9.43 33.09,-14.14 66.07,-14.14 h 8.49 v -33.21 h -337.1 v 33.21 h 9.19 c 32.97,0 54.88,5.06 65.72,15.2 10.83,10.13 16.25,32.61 16.25,67.49 v 726.48 c 0,42.86 -5.9,71.25 -17.66,85.16 -11.78,13.89 -35.81,23.2 -72.08,27.91 v 30.39 c 38.16,6.59 77.38,16.49 117.66,29.69 40.28,13.18 82.56,29.67 126.85,49.46 v -519.42 c 48.06,38.63 92.69,66.89 133.92,84.8 41.23,17.9 82.56,26.86 124.03,26.86 71.13,0 125.09,-20.49 161.83,-61.49 36.75,-40.98 55.12,-101.05 55.12,-180.2 v -299.64 c 0,-36.29 5.41,-59.13 16.26,-68.55 10.83,-9.43 32.97,-14.14 66.43,-14.14 h 8.47 v -33.21 h -342.74 v 33.21 h 8.47 c 33.45,0 55.59,4.71 66.44,14.14 10.83,9.42 16.25,32.26 16.25,68.55 v 319.42 c 0,46.17 -12.49,82.09 -37.45,107.77 -24.98,25.68 -59.36,38.52 -103.19,38.52 -31.56,0 -62.07,-8.48 -91.51,-25.44 -29.45,-16.96 -56.88,-42.16 -82.33,-75.61 v -364.66"
         style="fill:#231f20;fill-opacity:1;fill-rule:nonzero;stroke:none"
         id="path170" />
      <path
         d="m 5442.15,3079.33 h -78.45 v 50.17 c 40.99,30.15 79.15,64.43 114.48,102.84 35.35,38.38 68.08,81.37 98.24,128.96 l 20.49,-1.41 V 3129.5 h 207.07 v -50.17 h -207.07 v -395.04 c 0,-50.88 6.01,-84.92 18.02,-102.12 12.02,-17.2 33.58,-25.79 64.67,-25.79 19.79,0 40.28,4.24 61.47,12.71 21.21,8.49 42.16,20.73 62.91,36.75 l 19.08,-26.14 c -34.88,-37.23 -70.92,-65.37 -108.13,-84.45 -37.22,-19.09 -75.61,-28.63 -115.19,-28.63 -55.12,0 -95.17,13.79 -120.14,41.35 -24.98,27.56 -37.45,72.19 -37.45,133.92 v 437.44"
         style="fill:#231f20;fill-opacity:1;fill-rule:nonzero;stroke:none"
         id="path172" />
      <path
         d="m 6091.6,2603.02 c 0,-36.29 5.54,-59.13 16.61,-68.55 11.07,-9.43 33.1,-14.14 66.08,-14.14 h 8.48 v -33.21 h -335.68 v 33.21 h 7.77 c 32.97,0 54.89,4.71 65.73,14.14 10.83,9.42 16.25,32.26 16.25,68.55 v 318.02 c 0,42.86 -5.77,71.01 -17.32,84.44 -11.54,13.43 -35.68,22.5 -72.43,27.21 v 31.8 c 38.16,7.06 77.38,17.19 117.67,30.39 40.28,13.19 82.56,29.68 126.84,49.47 z m -164.65,842.38 c 0,26.86 8.94,49.23 26.85,67.14 17.9,17.9 40.28,26.85 67.14,26.85 26.38,0 48.64,-9.08 66.77,-27.21 18.14,-18.14 27.21,-40.4 27.21,-66.78 0,-26.38 -9.07,-48.65 -27.21,-66.79 -18.13,-18.13 -40.39,-27.2 -66.77,-27.2 -26.86,0 -49.24,8.94 -67.14,26.85 -17.91,17.9 -26.85,40.29 -26.85,67.14"
         style="fill:#231f20;fill-opacity:1;fill-rule:nonzero;stroke:none"
         id="path174" />
      <path
         d="m 6832.93,2752.13 h 37.45 c -8.47,-88.58 -39.92,-158.3 -94.34,-209.18 -54.42,-50.88 -124.73,-76.33 -210.95,-76.33 -94.7,0 -170.56,28.38 -227.55,85.16 -57.01,56.77 -85.52,132.74 -85.52,227.91 0,106.01 31.92,193.28 95.77,261.83 63.83,68.55 145.45,102.83 244.87,102.83 72.08,0 134.97,-18.26 188.68,-54.77 53.71,-36.51 80.57,-77.63 80.57,-123.32 0,-25.44 -8.61,-46.77 -25.8,-63.96 -17.2,-17.2 -38.05,-25.78 -62.54,-25.78 -17.91,0 -34.16,5.76 -48.77,17.3 -14.6,11.54 -27.8,28.86 -39.57,51.94 -5.19,10.37 -12.02,25.45 -20.49,45.24 -32.99,73.95 -67.14,110.95 -102.47,110.95 -43.35,0 -77.15,-18.85 -101.42,-56.54 -24.27,-37.7 -36.39,-90.7 -36.39,-159 0,-95.18 19.9,-170.56 59.71,-226.14 39.81,-55.61 93.17,-83.4 160.07,-83.4 52.3,0 94.58,15.08 126.85,45.23 32.27,30.15 52.89,73.5 61.84,130.03"
         style="fill:#231f20;fill-opacity:1;fill-rule:nonzero;stroke:none"
         id="path176" />
      <path
         d="m 3043.02,5916.52 v -386.19 l 1139.62,647.42 340.75,-196.87 V 5065.2 l -249.88,-144.43 340.74,-189.31 242.32,143.88 v 1302.41 l -681.5,386.19 -1132.05,-647.42"
         style="fill:#363993;fill-opacity:1;fill-rule:nonzero;stroke:none"
         id="path178" />
      <path
         d="m 4417.38,5912.73 v -387.39 l -242.31,145.08 -787.51,-454.33 V 4804.2 l 1120.69,-648.22 -340.75,-189.31 -1124.48,655.8 v 788.8 l 1124.48,637.76 249.88,-136.3"
         style="fill:#363993;fill-opacity:1;fill-rule:nonzero;stroke:none"
         id="path180" />
      <path
         d="m 3819.17,5344.81 7.58,-280.17 787.5,-454.33 355.9,204.45 v 1296.38 l 325.6,-198.41 V 4610.31 l -681.5,-393.76 -1120.68,651.21 v 280.17 l 325.6,196.88"
         style="fill:#4ea5d5;fill-opacity:1;fill-rule:nonzero;stroke:none"
         id="path182" />
    </g>
  </g>
</svg>
